<svg width="22px" height="13px" viewBox="0 0 22 13" version="1.1" xmlns="http://www.w3.org/2000/svg" xmlns:xlink="http://www.w3.org/1999/xlink">
    <g id="Mockups" stroke="none" stroke-width="1" fill="none" fill-rule="evenodd">
        <g id="Landing-Page" transform="translate(-792.000000, -534.000000)" fill="#50BFC3" fill-rule="nonzero">
            <g id="noun_Transfer-Arrows_785714" transform="translate(792.000000, 534.000000)">
                <path d="M19.5650384,5.68721932 L15.8780517,1.29462793 C15.6102405,0.93342233 15.6876728,0.424772118 16.0510015,0.15852588 C16.4143302,-0.107720357 16.9259702,-0.030740586 17.1937814,0.330465011 L21.8405957,6.01820587 C22.0531348,6.30486408 22.0531348,6.69571057 21.8405957,6.98236878 L17.1942074,12.669535 C16.9263962,13.0307406 16.4147563,13.1077204 16.0514276,12.8414741 C15.6880988,12.5752279 15.6106666,12.0665777 15.8784778,11.7053721 L19.5650384,7.31275644 L0.817256757,7.31220604 C0.365891509,7.31219927 0,6.94842812 0,6.49970043 C0,6.05097274 0.365916149,5.68721255 0.817281396,5.68721932 L19.5650384,5.68721932 Z" id="Shape"></path>
            </g>
        </g>
    </g>
</svg>